<svg xmlns="http://www.w3.org/2000/svg" xmlns:xlink="http://www.w3.org/1999/xlink" version="1.1" x="0px" y="0px" viewBox="0 0 100 125" enable-background="new 0 0 100 100" xml:space="preserve"><path d="M66.213,95H23.584V79.186l-5.007-18.425V25.196c0-2.789,2.269-5.058,5.058-5.058s5.058,2.269,5.058,5.058v20.861  c0,0.426,0.347,0.773,0.773,0.773c0.427,0,0.773-0.347,0.773-0.773V17.79c0-2.928,2.382-5.311,5.311-5.311s5.312,2.383,5.312,5.311  v28.267c0,0.426,0.347,0.773,0.772,0.773c0.427,0,0.773-0.347,0.773-0.773V10.564C42.408,7.496,44.904,5,47.973,5  s5.565,2.496,5.565,5.564v35.493c0,0.426,0.347,0.773,0.772,0.773c0.426,0,0.773-0.347,0.773-0.773V15.635  c0-3.068,2.497-5.565,5.565-5.565c3.068,0,5.564,2.497,5.564,5.565v39.896l4.27-15.727c0.651-2.428,2.86-4.124,5.372-4.124  c0.485,0,0.971,0.064,1.444,0.191c1.436,0.384,2.636,1.305,3.379,2.592s0.94,2.787,0.555,4.223l-5.278,19.709l-9.741,16.857V95z   M24.573,94.011h40.651V78.987l9.841-17.03l5.212-19.527c0.317-1.181,0.155-2.414-0.457-3.473c-0.611-1.058-1.597-1.815-2.778-2.131  c-0.389-0.104-0.789-0.157-1.188-0.157c-2.065,0-3.881,1.396-4.417,3.393l-6.213,22.887V15.635c0-2.523-2.053-4.576-4.575-4.576  c-2.523,0-4.576,2.053-4.576,4.576v30.422c0,0.972-0.791,1.762-1.763,1.762c-0.972,0-1.762-0.791-1.762-1.762V10.564  c0-2.523-2.052-4.576-4.576-4.576c-2.523,0-4.576,2.053-4.576,4.576v35.493c0,0.972-0.791,1.762-1.762,1.762  c-0.941,0-1.712-0.742-1.759-1.672h-0.002V17.79c0-2.383-1.938-4.322-4.322-4.322c-2.383,0-4.322,1.939-4.322,4.322l-0.002,28.357  c-0.047,0.93-0.818,1.672-1.76,1.672c-0.972,0-1.762-0.791-1.762-1.762V25.196c0-2.244-1.825-4.069-4.068-4.069  s-4.069,1.825-4.069,4.069v35.499l5.007,18.425V94.011z M76.903,45.319L76.903,45.319c-0.265,0-0.529-0.036-0.787-0.104  c-0.782-0.209-1.436-0.71-1.84-1.412c-0.405-0.701-0.513-1.517-0.303-2.299l0.526-1.959c0.093-0.349,0.443-0.935,1.745-0.935  c1.291,0,3.197,0.609,3.868,1.483c0.314,0.41,0.304,0.782,0.239,1.021l-0.524,1.959C79.473,44.395,78.271,45.319,76.903,45.319z   M76.244,39.599c-0.556,0-0.772,0.136-0.79,0.201l-0.525,1.96c-0.142,0.526-0.069,1.076,0.204,1.548  c0.272,0.473,0.713,0.81,1.239,0.951c0.174,0.046,0.353,0.07,0.53,0.07h0c0.92,0,1.73-0.623,1.969-1.513l0.524-1.959  c0.013-0.048-0.044-0.13-0.069-0.163C78.91,40.151,77.355,39.599,76.244,39.599z M60.395,18.87c-1.67,0-3.029-1.359-3.029-3.03  v-2.028c0-1.14,1.632-1.544,3.03-1.544c1.398,0,3.03,0.404,3.03,1.544v2.028C63.426,17.511,62.066,18.87,60.395,18.87z   M60.396,13.256c-1.346,0-2.041,0.389-2.041,0.555v2.028c0,1.125,0.915,2.041,2.04,2.041c1.126,0,2.042-0.916,2.042-2.041v-2.028  C62.437,13.646,61.742,13.256,60.396,13.256z M47.973,14.306c-1.811,0-3.283-1.473-3.283-3.283V8.792c0-1.218,1.769-1.65,3.283-1.65  s3.283,0.432,3.283,1.65v2.231C51.255,12.833,49.783,14.306,47.973,14.306z M47.973,8.132c-1.379,0-2.294,0.397-2.294,0.661v2.231  c0,1.265,1.029,2.294,2.294,2.294c1.265,0,2.294-1.029,2.294-2.294V8.792C50.267,8.529,49.352,8.132,47.973,8.132z M35.424,21.405  c-1.67,0-3.029-1.359-3.029-3.03v-2.028c0-1.14,1.632-1.545,3.029-1.545s3.029,0.405,3.029,1.545v2.028  C38.453,20.046,37.094,21.405,35.424,21.405z M35.424,15.791c-1.347,0-2.041,0.39-2.041,0.556v2.028  c0,1.125,0.915,2.041,2.041,2.041c1.125,0,2.04-0.916,2.04-2.041v-2.028C37.464,16.181,36.77,15.791,35.424,15.791z M23.255,29.011  c-1.531,0-2.776-1.246-2.776-2.776v-1.826c0-1.062,1.496-1.439,2.776-1.439c1.28,0,2.775,0.377,2.775,1.439v1.826  C26.031,27.765,24.786,29.011,23.255,29.011z M23.255,23.958c-1.233,0-1.788,0.358-1.788,0.45v1.826  c0,0.985,0.802,1.787,1.787,1.787s1.787-0.802,1.787-1.787v-1.826C25.042,24.316,24.488,23.958,23.255,23.958z M62.93,31.099h-5.07  v-0.507h5.07V31.099z M62.295,29.071h-3.801v0.507h3.801V29.071z M62.295,32.113h-3.801v0.507h3.801V32.113z M77.086,52.335  l-4.898-1.313l0.13-0.49l4.899,1.313L77.086,52.335z M77,50.212l-3.674-0.983l-0.131,0.489l3.674,0.984L77,50.212z M76.211,53.151  l-3.672-0.984l-0.131,0.49l3.672,0.984L76.211,53.151z M50.507,28.564h-5.07v-0.507h5.07V28.564z M49.874,26.536h-3.803v0.507h3.803  V26.536z M49.874,29.578h-3.803v0.507h3.803V29.578z M37.958,32.367h-5.07V31.86h5.07V32.367z M37.325,30.338h-3.802v0.507h3.802  V30.338z M37.325,33.38h-3.802v0.507h3.802V33.38z M25.79,36.17h-5.07v-0.507h5.07V36.17z M25.156,34.142h-3.803v0.507h3.803V34.142  z M25.156,37.184h-3.803v0.507h3.803V37.184z"/></svg>